HIERARCHY
ROOT SpineBase
{
  OFFSET 0.000000 0.000000 0.000000
  CHANNELS 6 Xposition Yposition Zposition Zrotation Xrotation Yrotation
  JOINT SpineMid
  {
    OFFSET 0.000000 33.187436 0.000000
    CHANNELS 3 Zrotation Xrotation Yrotation
    JOINT SpineShoulder
    {
      OFFSET 0.026648 24.862347 -0.894977
      CHANNELS 3 Zrotation Xrotation Yrotation
      JOINT Neck
      {
        OFFSET 0.040746 8.293149 -0.639633
        CHANNELS 3 Zrotation Xrotation Yrotation
        JOINT Head
        {
          OFFSET -0.028687 11.502744 2.396499
          CHANNELS 3 Zrotation Xrotation Yrotation
          End Site
          {
            OFFSET 0 0 0
          }
        }
      }
      JOINT ShoulderLeft
      {
        OFFSET -13.987352 -4.014563 -0.041308
        CHANNELS 3 Zrotation Xrotation Yrotation
        JOINT ElbowLeft
        {
          OFFSET -5.810568 -20.872375 8.978582
          CHANNELS 3 Zrotation Xrotation Yrotation
          JOINT WristLeft
          {
            OFFSET -1.549925 -18.512555 7.510299
            CHANNELS 3 Zrotation Xrotation Yrotation
            JOINT HandLeft
            {
              OFFSET -0.255487 -7.759640 2.529609
              CHANNELS 3 Zrotation Xrotation Yrotation
              JOINT HandTipLeft
              {
                OFFSET 0.439239 -1.638496 0.191461
                CHANNELS 3 Zrotation Xrotation Yrotation
                End Site
                {
                  OFFSET 0 0 0
                }
              }
              JOINT ThumbLeft
              {
                OFFSET 0.477981 0.961233 -2.050198
                CHANNELS 3 Zrotation Xrotation Yrotation
                End Site
                {
                  OFFSET 0 0 0
                }
              }
            }
          }
        }
      }
      JOINT ShoulderRight
      {
        OFFSET 11.638807 -6.216317 -10.631905
        CHANNELS 3 Zrotation Xrotation Yrotation
        JOINT ElbowRight
        {
          OFFSET 6.221860 -24.818385 1.372303
          CHANNELS 3 Zrotation Xrotation Yrotation
          JOINT WristRight
          {
            OFFSET 5.182029 -23.254485 8.006994
            CHANNELS 3 Zrotation Xrotation Yrotation
            JOINT HandRight
            {
              OFFSET -0.647963 -6.279604 2.582095
              CHANNELS 3 Zrotation Xrotation Yrotation
              JOINT HandTipRight
              {
                OFFSET -0.244398 -7.921682 0.541641
                CHANNELS 3 Zrotation Xrotation Yrotation
                End Site
                {
                  OFFSET 0 0 0
                }
              }
              JOINT ThumbRight
              {
                OFFSET 2.103410 1.103443 -3.260729
                CHANNELS 3 Zrotation Xrotation Yrotation
                End Site
                {
                  OFFSET 0 0 0
                }
              }
            }
          }
        }
      }
    }
  }
  JOINT HipLeft
  {
    OFFSET -5.212006 1.038290 -0.977998
    CHANNELS 3 Zrotation Xrotation Yrotation
    JOINT KneeLeft
    {
      OFFSET -7.769744 -39.946004 4.927655
      CHANNELS 3 Zrotation Xrotation Yrotation
      JOINT AnkleLeft
      {
        OFFSET -1.789635 -31.855915 1.552048
        CHANNELS 3 Zrotation Xrotation Yrotation
        JOINT FootLeft
        {
          OFFSET -5.047150 -3.233403 -7.863502
          CHANNELS 3 Zrotation Xrotation Yrotation
          End Site
          {
            OFFSET 0 0 0
          }
        }
      }
    }
  }
  JOINT HipRight
  {
    OFFSET 5.998133 2.381532 -5.239154
    CHANNELS 3 Zrotation Xrotation Yrotation
    JOINT KneeRight
    {
      OFFSET 2.398266 -36.683093 -0.532795
      CHANNELS 3 Zrotation Xrotation Yrotation
      JOINT AnkleRight
      {
        OFFSET 0.108782 -34.602661 -1.216867
        CHANNELS 3 Zrotation Xrotation Yrotation
        JOINT FootRight
        {
          OFFSET -3.706488 -2.655806 -11.990874
          CHANNELS 3 Zrotation Xrotation Yrotation
          End Site
          {
            OFFSET 0 0 0
          }
        }
      }
    }
  }
}
MOTION
Frames: 12
Frame Time: 0.033333
-33.886822 74.751834 262.007690 -0.000000 0.000000 20.812611 -0.000000 0.000000 -20.812611 -0.000000 0.000000 0.000000 -0.000000 0.000000 0.000000 0.000000 0.000000 0.000000 -0.000000 0.000000 0.000000 -0.000000 0.000000 0.000000 -0.000000 0.000000 0.000000 -0.000000 0.000000 0.000000 0.000000 0.000000 0.000000 0.000000 0.000000 0.000000 -0.000000 0.000000 0.000000 -0.000000 0.000000 0.000000 -0.000000 0.000000 0.000000 -0.000000 0.000000 0.000000 0.000000 0.000000 0.000000 0.000000 0.000000 0.000000 -0.000000 0.000000 -20.812611 -0.000000 0.000000 0.000000 -0.000000 0.000000 0.000000 0.000000 0.000000 0.000000 -0.000000 0.000000 -20.812611 -0.000000 0.000000 0.000000 -0.000000 0.000000 0.000000 0.000000 0.000000 0.000000
-33.840083 74.738859 262.081413 0.115246 -0.088893 21.217252 -0.075263 0.124576 -21.217081 -0.000000 0.000000 0.000000 -0.000000 0.000000 0.000000 0.000000 0.000000 0.000000 0.747705 1.625898 -0.142756 -0.743952 -1.627618 0.121578 -0.000000 0.000000 0.000000 -0.000000 0.000000 0.000000 0.000000 0.000000 0.000000 0.000000 0.000000 0.000000 -0.000000 0.000000 0.000000 -0.000000 0.000000 0.000000 1.589500 0.727683 0.570746 -2.393118 -1.033332 -0.646891 0.000000 0.000000 0.000000 0.000000 0.000000 0.000000 -0.075263 0.124576 -21.217081 -0.000000 0.000000 0.000000 1.211008 -1.628555 -0.406526 0.000000 0.000000 0.000000 -0.075263 0.124576 -21.217081 -0.000000 0.000000 0.000000 -0.000000 0.000000 0.000000 0.000000 0.000000 0.000000
-33.798851 74.731714 262.146325 0.217781 -0.164775 21.536234 -0.142091 0.233216 -21.535631 -0.000000 0.000000 0.000000 -0.000000 0.000000 0.000000 0.000000 0.000000 0.000000 1.384520 2.957923 -0.267644 -1.372530 -2.963502 0.196391 -0.000000 0.000000 0.000000 -0.000000 0.000000 0.000000 0.000000 0.000000 0.000000 0.000000 0.000000 0.000000 -0.000000 0.000000 0.000000 -1.290860 0.507559 -0.326984 4.326215 1.008233 1.430833 -4.666809 -2.075230 -1.280387 0.000000 0.000000 0.000000 0.000000 0.000000 0.000000 -0.142091 0.233216 -21.535631 -0.000000 0.000000 0.000000 2.188432 -2.659363 -1.225871 0.000000 0.000000 0.000000 -0.142091 0.233216 -21.535631 -0.000000 0.000000 0.000000 -0.150287 -0.128708 0.860773 0.000000 0.000000 0.000000
-33.763127 74.730399 262.202426 0.307681 -0.227709 21.768658 -0.201296 0.325575 -21.767475 -0.000000 0.000000 0.000000 -0.000000 0.000000 0.000000 0.000000 0.000000 0.000000 1.889679 3.955050 -0.360784 -1.869232 -3.964742 0.230826 -0.000000 0.000000 0.000000 -0.000000 0.000000 0.000000 0.000000 0.000000 0.000000 0.000000 0.000000 0.000000 -0.000000 0.000000 0.000000 -1.728587 0.706773 -0.429425 6.116470 1.643073 2.006328 -6.847846 -3.140129 -1.916177 0.000000 0.000000 0.000000 0.000000 0.000000 0.000000 -0.201296 0.325575 -21.767475 0.577373 -0.707017 0.071412 2.303948 -2.328286 -2.564026 0.000000 0.000000 0.000000 -0.201296 0.325575 -21.767475 -0.000000 0.000000 0.000000 -0.200175 -0.175983 1.154231 0.000000 0.000000 0.000000
-33.732910 74.734915 262.249716 0.385010 -0.277743 21.913785 -0.253542 0.401360 -21.911964 -0.000000 0.000000 0.000000 -0.000000 0.000000 0.000000 0.000000 0.000000 0.000000 2.246964 4.588192 -0.410622 -2.221221 -4.600690 0.231357 -0.000000 0.000000 0.000000 -0.000000 0.000000 0.000000 0.000000 0.000000 0.000000 0.000000 0.000000 0.000000 -0.020497 -0.926767 -0.233546 -2.006993 1.783056 -0.224743 7.703377 2.383843 2.497684 -8.955111 -4.240399 -2.568263 0.000000 0.000000 0.000000 0.000000 0.000000 0.000000 -0.253542 0.401360 -21.911964 0.702821 -0.885775 0.089435 2.584563 -1.850116 -4.213543 0.000000 0.000000 0.000000 -0.253542 0.401360 -21.911964 -0.000000 0.000000 0.000000 -0.233435 -0.211449 1.356002 0.000000 0.000000 0.000000
-33.708201 74.745261 262.288194 0.449816 -0.314911 21.971012 -0.299338 0.460326 -21.968573 -0.000000 0.000000 0.000000 -0.421506 0.748540 0.092313 0.000000 0.000000 0.000000 2.446082 4.841238 -0.409449 -2.420150 -4.854229 0.203433 -0.000000 0.000000 0.000000 -0.000000 0.000000 0.000000 0.000000 0.000000 0.000000 0.000000 0.000000 0.000000 0.036066 -1.045632 -0.259667 -2.206566 2.014997 -0.210943 9.118581 3.248212 2.909199 -11.004380 -5.388396 -3.250152 0.000000 0.000000 0.000000 0.000000 0.000000 0.000000 -0.299338 0.460326 -21.968573 0.794626 -1.036024 0.104099 2.635331 -0.758890 -6.159241 0.000000 0.000000 0.000000 -0.299338 0.460326 -21.968573 -0.000000 0.000000 0.000000 -0.250184 -0.234910 1.465928 0.000000 0.000000 0.000000
-33.674573 74.779909 262.325407 0.524987 -0.348201 21.911645 -0.357138 0.518949 -21.908432 -0.000000 0.000000 0.000000 -0.599218 0.903330 0.131605 0.000000 0.000000 0.000000 2.504054 4.873195 -0.396351 -2.479339 -4.885793 0.183990 -0.000000 0.000000 0.000000 -0.000000 0.000000 0.000000 0.000000 0.000000 0.000000 0.000000 0.000000 0.000000 0.174473 -1.013752 -0.242747 -2.370370 2.020364 -0.225943 10.988521 5.512699 3.272982 -14.460775 -9.061606 -4.470154 0.000000 0.000000 0.000000 0.000000 0.000000 0.000000 -0.525573 1.358677 -22.102910 1.368988 -1.989733 0.336622 2.659554 3.338075 -12.100255 0.000000 0.000000 0.000000 -0.357138 0.518949 -21.908432 -0.000000 0.000000 0.000000 -0.245322 -0.247334 1.462079 0.000000 0.000000 0.000000
-33.661393 74.817166 262.347555 0.567810 -0.357900 21.741419 -0.394865 0.542755 -21.737775 -0.000000 0.000000 0.000000 -0.703947 1.144731 0.156228 0.000000 0.000000 0.000000 2.055426 3.550249 -0.171231 -2.048755 -3.554099 0.043953 -0.000000 0.000000 0.000000 -0.000000 0.000000 0.000000 0.000000 0.000000 0.000000 0.000000 0.000000 0.000000 0.254792 -1.056672 -0.248207 -2.053029 2.201959 -0.056642 11.899662 6.149561 3.487025 -16.226970 -9.160153 -5.204829 0.000000 0.000000 0.000000 0.000000 0.000000 0.000000 -0.561483 1.413150 -21.939046 1.421931 -2.153965 0.356036 2.988435 4.010267 -13.793143 0.000000 0.000000 0.000000 -0.394865 0.542755 -21.737775 -0.000000 0.000000 0.000000 -0.212013 -0.237360 1.296780 0.000000 0.000000 0.000000
-33.667124 74.853679 262.352043 0.571890 -0.345468 21.524511 -0.405273 0.531188 -21.520908 -0.000000 0.000000 0.000000 -0.701457 1.387577 0.157704 0.000000 0.000000 0.000000 1.689798 2.760149 -0.083509 -1.687735 -2.761410 0.002115 -0.000000 0.000000 0.000000 -0.000000 0.000000 0.000000 0.000000 0.000000 0.000000 0.000000 0.000000 0.000000 0.374470 -1.058315 -0.240837 -1.730453 2.250854 0.089817 12.397651 6.690510 3.569625 -17.739516 -10.093069 -5.809443 0.000000 0.000000 0.000000 0.000000 0.000000 0.000000 -0.540172 1.388550 -21.718452 1.340182 -2.115500 0.345656 1.533722 8.692630 -15.607591 0.000000 0.000000 0.000000 -0.405273 0.531188 -21.520908 -0.000000 0.000000 0.000000 -0.190098 -0.225158 1.179840 0.000000 0.000000 0.000000
-33.648346 74.845174 262.343661 0.608414 -0.320088 21.296802 -0.450630 0.519190 -21.293061 -0.000000 0.000000 0.000000 -0.688264 1.621605 0.156721 0.000000 0.000000 0.000000 1.164259 1.751170 -0.004534 -1.164664 -1.750901 -0.031058 -0.943281 -5.657283 -0.165000 0.931553 5.659220 0.072348 0.000000 0.000000 0.000000 0.000000 0.000000 0.000000 0.507236 -1.084084 -0.238547 -1.348599 2.342613 0.268919 12.198753 6.363450 3.545230 -18.250815 -10.228569 -5.971181 0.000000 0.000000 0.000000 0.000000 0.000000 0.000000 -0.592769 1.349758 -21.484779 1.203580 -1.902293 0.318019 1.284507 7.949593 -14.073362 0.000000 0.000000 0.000000 -0.450630 0.519190 -21.293061 -0.000000 0.000000 0.000000 -0.148929 -0.204872 0.964078 0.000000 0.000000 0.000000
-33.683495 74.837873 262.346305 0.574185 -0.303438 21.132588 -0.426189 0.490028 -21.129245 -0.000000 0.000000 0.000000 -0.642014 1.772735 0.147640 0.000000 0.000000 0.000000 0.996207 1.320200 0.049894 -0.997621 -1.319132 -0.072857 0.254439 1.542169 0.028871 -0.255308 -1.542025 -0.035732 0.000000 0.000000 0.000000 0.000000 0.000000 0.000000 0.632640 -1.107533 -0.236113 -0.959619 2.408304 0.440926 11.421683 5.751654 3.358133 -17.345866 -9.856556 -5.662151 0.000000 0.000000 0.000000 0.000000 0.000000 0.000000 -0.484788 1.289378 -21.311578 0.962888 -1.618874 0.278413 0.265730 8.485378 -12.248698 0.000000 0.000000 0.000000 -0.426189 0.490028 -21.129245 -0.000000 0.000000 0.000000 -0.126553 -0.188531 0.839219 0.000000 0.000000 0.000000
-33.743045 74.837952 262.353144 0.507405 -0.293835 20.948155 -0.368827 0.455813 -20.945387 -0.000000 0.000000 0.000000 -0.603139 1.819607 0.139317 0.000000 0.000000 0.000000 0.882605 1.208071 0.034276 -0.883524 -1.207399 -0.052891 1.323761 8.035618 0.075321 -1.347509 -8.031695 -0.262911 0.000000 0.000000 0.000000 0.000000 0.000000 0.000000 0.711286 -1.102870 -0.229837 -0.401625 2.500691 0.657218 10.457504 4.234339 3.260162 -16.500647 -9.627980 -5.296770 0.000000 0.000000 0.000000 0.000000 0.000000 0.000000 -0.368827 0.455813 -20.945387 0.636877 -0.851698 0.083607 -1.153566 8.777261 -9.462651 0.000000 0.000000 0.000000 -0.368827 0.455813 -20.945387 -0.000000 0.000000 0.000000 -0.000000 0.000000 0.000000 0.000000 0.000000 0.000000
